<?xml version="1.0" standalone="no"?>
<!DOCTYPE svg PUBLIC "-//W3C//DTD SVG 20010904//EN"
 "http://www.w3.org/TR/2001/REC-SVG-20010904/DTD/svg10.dtd">
<svg version="1.0" xmlns="http://www.w3.org/2000/svg"
 width="32.000000pt" height="32.000000pt" viewBox="0 0 32.000000 32.000000"
 preserveAspectRatio="xMidYMid meet">

<g transform="translate(0.000000,32.000000) scale(0.100000,-0.100000)"
fill="#000000" stroke="none">
<path d="M115 300 c-4 -6 15 -10 50 -10 l57 0 -4 -104 c-3 -93 -6 -107 -26
-129 -13 -14 -32 -27 -43 -30 -18 -5 -19 1 -19 104 0 60 2 109 4 109 2 0 20
-21 40 -47 20 -25 36 -40 36 -33 0 16 -79 120 -91 120 -5 0 -9 -59 -9 -130 l0
-131 -31 17 c-17 8 -36 29 -42 45 -13 34 -31 40 -22 7 11 -40 61 -78 101 -78
44 0 88 25 103 57 6 13 11 73 11 133 l0 110 -54 0 c-30 0 -58 -4 -61 -10z"/>
<path d="M280 174 l0 -86 -20 23 c-10 13 -19 18 -20 12 0 -7 9 -22 20 -33 11
-11 20 -28 20 -37 -1 -15 -4 -14 -21 6 -11 13 -22 21 -25 18 -8 -8 48 -77 58
-71 12 8 10 254 -2 254 -6 0 -10 -35 -10 -86z"/>
<path d="M140 194 c0 -6 14 -29 31 -50 40 -50 39 -50 39 -33 -1 17 -70 99 -70
83z"/>
</g>
</svg>
