<?xml version="1.0" standalone="no"?>
<!DOCTYPE svg PUBLIC "-//W3C//DTD SVG 20010904//EN"
 "http://www.w3.org/TR/2001/REC-SVG-20010904/DTD/svg10.dtd">
<svg version="1.0" xmlns="http://www.w3.org/2000/svg"
 width="32.000000pt" height="32.000000pt" viewBox="0 0 32.000000 32.000000"
 preserveAspectRatio="xMidYMid meet">

<g transform="translate(0.000000,32.000000) scale(0.100000,-0.100000)"
fill="#000000" stroke="none">
<path d="M0 275 l0 -45 112 0 c106 0 111 -1 90 -16 -33 -23 -27 -74 10 -92 23
-10 33 -10 63 2 29 12 35 20 35 45 0 20 -8 35 -22 45 l-22 16 27 0 c25 0 27 3
27 45 l0 45 -160 0 -160 0 0 -45z m280 -106 c0 -12 -35 -20 -54 -13 -27 10
-18 20 19 20 19 0 35 -3 35 -7z"/>
<path d="M12 208 c-31 -31 0 -98 45 -98 27 0 73 37 73 59 0 42 -87 70 -118 39z
m62 -39 c10 8 16 9 16 3 0 -17 -19 -24 -48 -17 -20 5 -23 8 -12 15 9 6 17 5
21 -2 6 -9 12 -8 23 1z"/>
<path d="M134 95 c4 -12 -6 -15 -64 -15 l-70 0 0 -40 0 -40 160 0 160 0 0 40
0 40 -75 0 c-62 0 -73 2 -69 15 5 11 -1 15 -21 15 -20 0 -26 -4 -21 -15z m11
-55 c3 -5 -1 -10 -9 -10 -9 0 -16 5 -16 10 0 6 4 10 9 10 6 0 13 -4 16 -10z
m55 -6 c0 -2 -9 -4 -21 -4 -11 0 -18 4 -14 10 5 8 35 3 35 -6z"/>
</g>
</svg>
